<?xml version="1.0" encoding="utf-8"?>
<!-- Generator: Adobe Illustrator 21.0.0, SVG Export Plug-In . SVG Version: 6.00 Build 0)  -->
<svg version="1.1" id="Capa_1" xmlns="http://www.w3.org/2000/svg" xmlns:xlink="http://www.w3.org/1999/xlink" x="0px" y="0px"
	 viewBox="0 0 512 512" style="enable-background:new 0 0 512 512;" xml:space="preserve">
<style type="text/css">
	.st0{fill:#FFF2EE;}
</style>
<g>
	<g>
		<path class="st0" d="M488.9,0H23.1C10.4,0,0,10.3,0,23.1v465.9C0,501.6,10.4,512,23.1,512h465.8c12.8,0,23.1-10.4,23.1-23.1V23.1
			C512,10.3,501.6,0,488.9,0z M256,166.7c49.3,0,89.3,40,89.3,89.3s-40,89.3-89.3,89.3s-89.3-40-89.3-89.3S206.7,166.7,256,166.7z
			 M448,448H64V224h42.1c-2.2,10.3-3.5,21-3.5,32c0,84.6,68.8,153.3,153.3,153.3c84.6,0,153.3-68.8,153.3-153.3
			c0-11-1.3-21.7-3.5-32H448L448,448L448,448z M448,160h-96V64h96V160z"/>
	</g>
</g>
</svg>
