<?xml version="1.0" encoding="utf-8"?>
<!-- Generator: Adobe Illustrator 21.0.0, SVG Export Plug-In . SVG Version: 6.00 Build 0)  -->
<svg version="1.1" id="Capa_1" xmlns="http://www.w3.org/2000/svg" xmlns:xlink="http://www.w3.org/1999/xlink" x="0px" y="0px"
	 viewBox="0 0 512 512" style="enable-background:new 0 0 512 512;" xml:space="preserve">
<style type="text/css">
	.st0{fill:#FFF2EE;}
</style>
<g>
	<path id="Tumblr" class="st0" d="M300.9,418.5c-8.6-5.1-16.5-13.7-19.7-22.1c-3.2-8.4-2.8-25.5-2.8-55.3V209.8h119.4v-91.4H278.5V0
		H205c-3.3,26.4-9.3,48.2-18.1,65.3c-8.8,17.1-20.3,31.7-34.8,44c-14.4,12.2-38,21.6-58.2,28.1v72.5H164v179.6
		c0,23.4,2.5,41.3,7.4,53.6c5,12.3,13.8,24,26.6,34.9c12.8,10.9,28.3,19.3,46.4,25.3c18.1,5.9,32.1,8.8,55.7,8.8
		c20.8,0,40.1-2.1,58-6.2c17.9-4.2,37.9-11.4,59.9-21.7v-80.8c-25.9,16.9-51.9,25.3-78,25.3C325.4,428.6,312.4,425.2,300.9,418.5z"
		/>
</g>
</svg>
