<?xml version="1.0" encoding="utf-8"?>
<!-- Generator: Adobe Illustrator 21.0.0, SVG Export Plug-In . SVG Version: 6.00 Build 0)  -->
<svg version="1.1" id="Capa_1" xmlns="http://www.w3.org/2000/svg" xmlns:xlink="http://www.w3.org/1999/xlink" x="0px" y="0px"
	 viewBox="0 0 512 512" style="enable-background:new 0 0 512 512;" xml:space="preserve">
<style type="text/css">
	.st0{fill:#FFF2EE;}
</style>
<g>
	<path id="Twitter__x28_alt_x29_" class="st0" d="M454,236.5c28.8-2.4,48.3-15.4,55.8-33.2c-10.4,6.4-42.6,13.3-60.4,6.7
		c-0.9-4.2-1.8-8.1-2.8-11.7c-13.6-49.8-59.9-89.8-108.6-85c3.9-1.6,7.9-3.1,11.9-4.4c5.4-1.9,36.7-7,31.8-18.1
		c-4.2-9.7-42.5,7.4-49.7,9.6c9.5-3.6,25.3-9.8,27-20.7c-14.6,2-28.9,8.9-40,18.9c4-4.3,7-9.6,7.7-15.2
		c-39,24.9-61.7,75.1-80.1,123.7c-14.5-14-27.3-25.1-38.8-31.2c-32.3-17.3-70.8-35.3-131.4-57.8c-1.9,20,9.9,46.7,43.8,64.4
		c-7.3-1-20.8,1.2-31.5,3.8c4.4,22.9,18.7,41.9,57.3,51c-17.7,1.2-26.8,5.2-35.1,13.9c8.1,16,27.7,34.7,63,30.9
		c-39.3,16.9-16,48.3,15.9,43.6C135.4,382,49.4,377.8,0,330.7c128.9,175.7,409.2,103.9,450.9-65.3c31.3,0.3,49.7-10.8,61.1-23.1
		C494,245.4,467.8,242.2,454,236.5z"/>
</g>
</svg>
